<?xml version="1.0" standalone="no"?>
<!DOCTYPE svg PUBLIC "-//W3C//DTD SVG 20010904//EN"
 "http://www.w3.org/TR/2001/REC-SVG-20010904/DTD/svg10.dtd">
<svg version="1.0" xmlns="http://www.w3.org/2000/svg"
 width="700.000000pt" height="700.000000pt" viewBox="0 0 700.000000 700.000000"
 preserveAspectRatio="xMidYMid meet">
<metadata>
Created by potrace 1.11, written by Peter Selinger 2001-2013
</metadata>
<g transform="translate(0.000000,700.000000) scale(0.100000,-0.100000)"
fill="#000000" stroke="none">
<path d="M459 6957 c-136 -19 -253 -118 -299 -253 -19 -55 -20 -100 -20 -2075
l0 -2019 730 0 c401 0 730 4 730 8 0 5 -11 41 -24 80 -23 67 -60 207 -70 262
-2 14 -7 36 -10 50 -21 94 -30 217 -31 415 0 210 13 368 40 465 1 3 5 25 9 50
11 60 82 290 107 349 58 131 78 173 123 256 26 49 70 124 97 165 l49 74 -2
1090 -3 1090 -686 0 c-377 1 -710 -2 -740 -7z"/>
<path d="M2633 6958 c-3 -6 -6 -788 -3 -1110 l0 -57 88 55 c48 31 141 82 207
116 187 94 301 137 570 219 30 8 161 38 200 44 255 41 343 48 552 49 l132 0 0
346 0 345 -870 0 c-479 0 -873 -3 -876 -7z"/>
<path d="M5122 6955 c-3 -5 -6 -190 -6 -412 l-1 -403 65 -21 c103 -34 309
-125 422 -186 533 -287 960 -728 1234 -1272 l32 -65 0 1013 c0 589 -4 1029
-10 1054 -17 75 -63 154 -118 204 -42 37 -132 81 -185 89 -75 11 -1426 11
-1433 -1z"/>
<path d="M4207 6044 c-1 -1 -54 -5 -117 -8 -310 -17 -603 -84 -883 -200 -191
-79 -364 -177 -540 -304 l-117 -86 87 -90 c49 -50 99 -103 113 -117 14 -14
117 -121 230 -239 113 -117 230 -239 260 -270 30 -32 145 -151 255 -265 110
-114 220 -228 244 -254 43 -46 202 -210 380 -393 l94 -98 0 -605 c0 -431 3
-605 11 -602 6 2 97 29 201 60 214 63 932 276 1160 343 83 25 157 46 165 48 8
3 53 16 100 29 47 14 292 87 545 161 253 75 470 140 482 145 22 10 22 13 18
150 -4 140 -10 209 -22 286 -3 22 -7 51 -9 65 -23 213 -128 536 -255 786 -314
619 -859 1091 -1519 1316 -71 24 -246 72 -300 83 -8 1 -35 6 -60 11 -25 4 -47
8 -50 9 -3 1 -32 5 -65 9 -33 5 -69 10 -79 12 -17 3 -115 9 -289 18 -21 1 -39
1 -40 0z m1373 -1867 c0 -2 -66 -70 -146 -150 l-146 -146 20 -29 c47 -65 65
-132 66 -237 1 -107 -12 -158 -62 -240 -55 -91 -152 -165 -254 -196 -161 -48
-331 -5 -449 114 -65 66 -95 118 -118 207 -72 286 128 549 429 564 47 2 143
-19 195 -43 l60 -27 149 149 150 148 53 -55 c29 -30 53 -57 53 -59z"/>
<path d="M4858 3816 c-91 -34 -137 -91 -145 -185 -9 -92 27 -162 105 -208 108
-64 246 -22 304 92 51 98 9 233 -86 283 -57 30 -127 37 -178 18z"/>
<path d="M2484 5037 c-337 -278 -583 -659 -689 -1066 -27 -105 -29 -116 -41
-181 -4 -19 -8 -44 -10 -55 -18 -94 -24 -375 -12 -505 42 -442 243 -891 540
-1208 45 -48 37 -48 160 -10 l67 20 -60 61 c-244 248 -424 578 -499 916 -35
157 -41 206 -44 381 -4 182 6 287 40 443 92 420 312 783 645 1064 l77 64 -57
60 c-31 32 -59 59 -61 59 -3 -1 -28 -20 -56 -43z"/>
<path d="M3151 4334 c-90 -117 -161 -283 -176 -414 -3 -25 -8 -54 -10 -65 -2
-11 -7 -49 -10 -85 -12 -116 -23 -143 -173 -448 -192 -386 -192 -375 24 -376
l134 -1 1 -195 c1 -107 1 -199 0 -203 -1 -5 3 -36 9 -70 21 -118 82 -215 159
-255 l38 -20 214 64 c118 36 221 67 229 69 8 2 69 20 135 40 66 20 143 43 170
52 l50 14 0 589 0 589 -36 38 c-19 21 -65 70 -101 108 -37 39 -88 93 -114 120
-140 149 -301 319 -389 412 l-101 105 -53 -68z m209 -625 c73 -41 102 -135 65
-212 -44 -93 -178 -120 -252 -51 -29 28 -53 82 -53 122 0 124 132 201 240 141z"/>
<path d="M6735 2999 c-190 -58 -366 -110 -400 -119 -16 -4 -131 -38 -255 -75
-374 -112 -794 -236 -810 -240 -8 -2 -67 -19 -130 -38 -160 -48 -672 -200
-995 -296 -1160 -341 -1798 -531 -1802 -535 -2 -1 13 -49 31 -107 19 -57 62
-192 96 -299 34 -107 65 -198 69 -202 3 -4 130 29 281 72 310 88 934 265 1115
315 66 19 233 66 370 105 138 39 257 72 265 74 18 5 357 101 555 158 77 22
165 47 195 54 57 15 142 40 258 74 37 11 76 22 87 25 11 2 117 32 235 65 118
34 262 75 320 91 58 16 227 64 375 107 l270 77 0 368 c0 202 0 367 0 366 0 0
-58 -19 -130 -40z"/>
<path d="M6845 2014 c-5 -1 -188 -53 -405 -114 -573 -162 -1014 -286 -1185
-335 -82 -24 -233 -66 -335 -95 -102 -28 -383 -108 -625 -176 -524 -149 -684
-194 -950 -269 -110 -31 -220 -62 -245 -69 -25 -8 -146 -42 -270 -77 -124 -34
-230 -67 -237 -73 -6 -6 -76 -117 -154 -246 -78 -129 -155 -253 -171 -274 -15
-21 -28 -42 -28 -45 0 -3 305 -6 678 -6 l677 0 22 37 c39 68 125 192 181 263
62 78 256 275 316 320 22 17 51 39 65 51 199 158 538 302 798 340 26 3 57 9
68 11 43 9 333 11 395 2 36 -5 79 -11 95 -14 17 -2 42 -6 55 -9 14 -3 36 -8
50 -10 140 -25 370 -118 529 -214 222 -133 485 -379 623 -582 l16 -25 21 45
c11 25 24 63 29 85 9 41 11 1470 2 1478 -3 2 -9 3 -15 1z"/>
<path d="M162 1872 l-23 -3 3 -677 3 -677 28 -58 c52 -106 163 -196 264 -214
21 -3 355 -7 743 -7 l705 -1 3 818 2 817 -37 1 c-159 2 -1673 3 -1691 1z"/>
<path d="M5100 983 c-246 -35 -435 -99 -615 -207 -171 -102 -374 -285 -493
-444 -34 -46 -62 -86 -62 -90 0 -9 2626 -9 2635 0 6 6 -22 54 -50 84 -5 7 -25
31 -44 55 -64 83 -247 254 -341 321 -79 56 -241 145 -325 179 -174 71 -367
108 -555 106 -69 0 -136 -2 -150 -4z"/>
</g>
</svg>
