<svg xmlns="http://www.w3.org/2000/svg" xmlns:xlink="http://www.w3.org/1999/xlink" viewBox="0 0 300 300"><defs><style>.cls-1{fill:url(#linear-gradient);}.cls-2{fill:#fff;}</style><linearGradient id="linear-gradient" x1="-34.03" y1="385.51" x2="-33.03" y2="385.51" gradientTransform="matrix(271.89, 126.79, 126.79, -271.89, -39654.36, 109198.68)" gradientUnits="userSpaceOnUse"><stop offset="0" stop-color="#5106ff"/><stop offset="1" stop-color="#61cbf2"/></linearGradient></defs><title>Asset 3</title><g id="Layer_2" data-name="Layer 2"><g id="Layer_1-2" data-name="Layer 1"><rect class="cls-1" width="300" height="300"/><path class="cls-2" d="M93.38,181H48V63A12,12,0,0,1,60,51h41.33v65.45a68.17,68.17,0,0,0-8,64.55Z"/><path class="cls-2" d="M101.33,201v50H60a12,12,0,0,1-12-12V201Z"/><path class="cls-2" d="M101.33,128a62.84,62.84,0,0,1,18.41-21.88l1.59,1.65,3.13,3.25c-1.07.78-2.12,1.59-3.13,2.45a55.41,55.41,0,0,0-1.12,84.15l-7.5,2.22A62.66,62.66,0,0,1,99.9,181a62.13,62.13,0,0,1,1.43-53Z"/><path class="cls-2" d="M147,134.33l-7.84-8.28a31.62,31.62,0,0,0-5.61,8.28,25.61,25.61,0,0,0-1.65,4.84c-.65,2.84-1.38,10.25-1.38,10.25l-8.82,17.91a2.69,2.69,0,0,0-.21,1.07,2.72,2.72,0,0,0,2.7,2.74h6.33v9.51c0,7.24,2.81,10.88,6.95,12.45l24.37-7.33V150Zm-5.58,21.49h0a3.93,3.93,0,1,1,3.94-3.93A3.93,3.93,0,0,1,141.45,155.82Z"/><path class="cls-2" d="M169.58,73a84.82,84.82,0,0,0-48.25,15.09V51h53.34V73.16C173,73.05,171.29,73,169.58,73Z"/><path class="cls-2" d="M239.92,250.34A11.86,11.86,0,0,1,236,251H158.68a54.33,54.33,0,0,1,16-16.45,45.39,45.39,0,0,1,20-7.29,43.22,43.22,0,0,1,4.84-.27C215.58,227,230.43,235.84,239.92,250.34Z"/><path class="cls-2" d="M248,239.33v0a11.91,11.91,0,0,1-2.69,7.22c-10.68-16.18-27.48-26-45.68-26a48,48,0,0,0-5,.25,51.32,51.32,0,0,0-20,6.28A60.67,60.67,0,0,0,151.26,251H108.81c4.11-5.26,7.48-12,11.87-18.66l.65-.18,53.34-15.08,20-5.65L248,196.37Z"/><path class="cls-2" d="M248,63v63a84.66,84.66,0,0,0-53.33-49.17V51H236A12,12,0,0,1,248,63Z"/><path class="cls-2" d="M195.83,146.29A7.33,7.33,0,0,1,190,158a7.34,7.34,0,1,1,3.95-13.51,6.31,6.31,0,0,0,.76.42l.46.19A6.59,6.59,0,0,0,195.83,146.29Z"/><path class="cls-2" d="M194.67,83.1a77.88,77.88,0,0,0-20-3.93c-1.68-.12-3.38-.17-5.09-.17a78.79,78.79,0,0,0-48.25,16.53c-.42.32-.83.65-1.24,1l-.13.11L121.33,98,137,114.33l19.24,20,12.67,13.16v35.62l5.75-1.7,46.43-13.74,26.9-8v-2.62A78.25,78.25,0,0,0,194.67,83.1Zm8.63,67.55a13.36,13.36,0,0,1-8.63,12.48A13.13,13.13,0,0,1,190,164a13.34,13.34,0,0,1,0-26.68,13.06,13.06,0,0,1,4.71.87,12.86,12.86,0,0,1,2.51,1.27l.93-.93,7.89-7.88,3.33,3.33-8.7,8.7A13.28,13.28,0,0,1,203.3,150.65Z"/><polygon class="cls-2" points="247.98 167.67 248 187.67 248 189.84 194.67 204.91 174.67 210.57 121.33 225.64 118.97 226.31 112.62 206.44 121.33 203.86 174.67 188.09 243.69 167.67 247.98 166.4 247.98 167.67"/><path class="cls-2" d="M236,51H194.67V76.79A84.66,84.66,0,0,1,248,126V63A12,12,0,0,0,236,51ZM121.33,51V88.09A84.82,84.82,0,0,1,169.58,73c1.71,0,3.41,0,5.09.16V51ZM48,201v38a12,12,0,0,0,12,12h41.33V201ZM60,51A12,12,0,0,0,48,63V181H93.38a68,68,0,0,1,8-64.55V51Z"/><path class="cls-2" d="M101.41,156a55.44,55.44,0,0,0,18.8,41.6l-7.5,2.22A62.66,62.66,0,0,1,99.9,181a62.13,62.13,0,0,1,1.43-53,62.84,62.84,0,0,1,18.41-21.88l1.59,1.65,3.13,3.25c-1.07.78-2.12,1.59-3.13,2.45A55.4,55.4,0,0,0,101.41,156Z"/><path class="cls-2" d="M147,134.33l-7.84-8.28a31.62,31.62,0,0,0-5.61,8.28,25.61,25.61,0,0,0-1.65,4.84c-.65,2.84-1.38,10.25-1.38,10.25l-8.82,17.91a2.69,2.69,0,0,0-.21,1.07,2.72,2.72,0,0,0,2.7,2.74h6.33v9.51c0,7.24,2.81,10.88,6.95,12.45l24.37-7.33V150Zm-5.58,21.49h0a3.93,3.93,0,1,1,3.94-3.93A3.93,3.93,0,0,1,141.45,155.82Z"/><polygon class="cls-2" points="248 187.67 248 189.84 194.67 204.91 174.67 210.57 121.33 225.64 118.97 226.31 112.62 206.44 121.33 203.86 174.67 188.09 243.69 167.67 247.98 166.4 247.98 167.67 248 187.67"/><path class="cls-2" d="M194.67,83.1a77.88,77.88,0,0,0-20-3.93c-1.68-.12-3.38-.17-5.09-.17a78.79,78.79,0,0,0-48.25,16.53c-.42.32-.83.65-1.24,1l-.13.11L121.33,98,137,114.33l19.24,20,12.67,13.16v35.62l5.75-1.7,46.43-13.74,26.9-8v-2.62A78.25,78.25,0,0,0,194.67,83.1Zm8.63,67.55a13.36,13.36,0,0,1-8.63,12.48A13.13,13.13,0,0,1,190,164a13.34,13.34,0,0,1,0-26.68,13.06,13.06,0,0,1,4.71.87,12.86,12.86,0,0,1,2.51,1.27l.93-.93,7.89-7.88,3.33,3.33-8.7,8.7A13.28,13.28,0,0,1,203.3,150.65Z"/><path class="cls-2" d="M197.3,150.65a7.38,7.38,0,1,1-3.39-6.17,6.31,6.31,0,0,0,.76.42l.46.19a6.59,6.59,0,0,0,.7,1.2A7.25,7.25,0,0,1,197.3,150.65Z"/><path class="cls-2" d="M248,239.33v0a11.91,11.91,0,0,1-2.69,7.22c-10.68-16.18-27.48-26-45.68-26a48,48,0,0,0-5,.25,51.32,51.32,0,0,0-20,6.28A60.67,60.67,0,0,0,151.26,251H108.81c4.11-5.26,7.48-12,11.87-18.66l.65-.18,53.34-15.08,20-5.65L248,196.37Z"/><path class="cls-2" d="M239.92,250.34A11.86,11.86,0,0,1,236,251H158.68a54.33,54.33,0,0,1,16-16.45,45.39,45.39,0,0,1,20-7.29,43.22,43.22,0,0,1,4.84-.27C215.58,227,230.43,235.84,239.92,250.34Z"/></g></g></svg>