<svg xmlns="http://www.w3.org/2000/svg" xmlns:xlink="http://www.w3.org/1999/xlink" viewBox="0 0 300 300"><defs><style>.cls-1{fill:url(#linear-gradient);}.cls-2{fill:#fff;}</style><linearGradient id="linear-gradient" x1="-34.52" y1="734.56" x2="-33.52" y2="734.56" gradientTransform="matrix(271.89, 126.79, 126.79, -271.89, -83775.71, 204165.22)" gradientUnits="userSpaceOnUse"><stop offset="0" stop-color="#5106ff"/><stop offset="1" stop-color="#61cbf2"/></linearGradient></defs><title>Asset 4</title><g id="Layer_2" data-name="Layer 2"><g id="Layer_1-2" data-name="Layer 1"><rect class="cls-1" width="300" height="300"/><g id="b6601fba-61d0-4caa-b498-56411fe412c3"><path class="cls-2" d="M146.37,135c3.26-.87,5-3,5-6,0-4.29-3.48-6.93-9.23-6.93H134v29h9.42c6.49,0,10.5-3.2,10.5-8.33C153.92,138.44,151.22,135.65,146.37,135Zm.82-6.12c0,2.58-1.83,4.16-5,4.16H139v-8h3.35C145.48,125,147.19,126.36,147.19,128.84ZM143.08,147H139V137h4c3.82,0,6.22,1.8,6.22,4.95S146.9,147,143.08,147ZM167,150.85c4.41,0,9-2,9-9.26V130h-5v11.62c0,3.41-1.57,5.52-4.51,5.52S162,145,162,141.62V130h-4v11.59C158,148.83,162.62,150.85,167,150.85Zm16.57-24.56a2.76,2.76,0,1,0-2.79-2.76A2.75,2.75,0,0,0,183.57,126.29ZM182,150h4V130h-4Zm10,0h4V120h-4Zm25-30v12.35a7.64,7.64,0,0,0-6.21-2.9c-4.88,0-8.77,4-8.77,10.53s3.89,10.5,8.77,10.5a7.66,7.66,0,0,0,6.44-3.2l.51,2.72H221V120Zm-5.86,27.33c-3.65,0-6.08-3-6.08-7s2.43-7,6.08-7c3.8,0,6.25,3.07,6.25,7S214.94,147.33,211.14,147.33Zm18-21a2.76,2.76,0,1,0-2.79-2.76A2.75,2.75,0,0,0,229.14,126.29ZM227,150h4V130h-4Zm14.34-3L253,133.41V130H237v4h10.2L236,147.45V151h17v-4Zm30-17-6.07,14.92-6-14.92h-4.64l8.51,20-4.42,10h4.52L276,130Z"/></g><path class="cls-2" d="M55.42,157.5H35V104.4A5.42,5.42,0,0,1,40.4,99H59v29.45a31.07,31.07,0,0,0-2.33,3.81,30.7,30.7,0,0,0-1.25,25.24Z"/><path class="cls-2" d="M59,166.5V189H40.4a5.42,5.42,0,0,1-5.4-5.4V166.5Z"/><path class="cls-2" d="M59,133.64a28.38,28.38,0,0,1,8.28-9.85l.72.75L69.41,126c-.48.35-1,.72-1.41,1.1A24.93,24.93,0,0,0,67.49,165l-3.37,1a28.18,28.18,0,0,1-5.76-8.47A27.9,27.9,0,0,1,59,133.64Z"/><path class="cls-2" d="M79.57,136.5,76,132.77a14.18,14.18,0,0,0-2.52,3.73,11,11,0,0,0-.75,2.18c-.29,1.27-.62,4.61-.62,4.61l-4,8.06a1.24,1.24,0,0,0-.09.48,1.22,1.22,0,0,0,1.21,1.23h2.85v4.28c0,3.26,1.27,4.9,3.13,5.6l11-3.29v-16.1Zm-2.51,9.67h0a1.77,1.77,0,1,1,1.78-1.77A1.77,1.77,0,0,1,77.05,146.17Z"/><path class="cls-2" d="M89.71,108.9A38.13,38.13,0,0,0,68,115.69V99H92v10C91.25,108.92,90.48,108.9,89.71,108.9Z"/><path class="cls-2" d="M121.36,188.7a5.12,5.12,0,0,1-1.76.3H84.81A24.35,24.35,0,0,1,92,181.6a20.41,20.41,0,0,1,9-3.28,19.77,19.77,0,0,1,2.18-.12C110.41,178.2,117.09,182.18,121.36,188.7Z"/><path class="cls-2" d="M125,183.75h0a5.49,5.49,0,0,1-1.21,3.25c-4.81-7.28-12.37-11.73-20.56-11.73a20.69,20.69,0,0,0-2.23.12,22.94,22.94,0,0,0-9,2.82A27.33,27.33,0,0,0,81.47,189H62.36c1.85-2.37,3.37-5.4,5.35-8.4l.29-.08,24-6.78,9-2.55,24-6.77Z"/><path class="cls-2" d="M125,104.4v28.33a38.06,38.06,0,0,0-24-22.12V99h18.6A5.42,5.42,0,0,1,125,104.4Z"/><path class="cls-2" d="M101.52,141.88a3.25,3.25,0,0,1-.52,4.49,3.3,3.3,0,1,1-2.12-5.83,3.23,3.23,0,0,1,1.78.53l.34.19.21.08A2.9,2.9,0,0,0,101.52,141.88Z"/><path class="cls-2" d="M101,113.44a34.78,34.78,0,0,0-9-1.76c-.75-.06-1.52-.08-2.29-.08A35.45,35.45,0,0,0,68,119l-.56.44-.06,0,.62.64,7,7.33,8.66,9,5.7,5.92v16l2.59-.77,20.9-6.18,12.1-3.58v-1.18A35.23,35.23,0,0,0,101,113.44Zm3.89,30.4a6,6,0,1,1-6-6,5.86,5.86,0,0,1,2.12.39,6,6,0,0,1,1.13.57l.42-.42,3.55-3.54,1.5,1.5-3.92,3.91A6,6,0,0,1,104.89,143.84Z"/><polygon class="cls-2" points="124.99 151.5 125 160.5 125 161.48 101 168.26 92 170.81 68 177.59 66.94 177.89 64.08 168.95 68 167.79 92 160.69 123.06 151.5 124.99 150.93 124.99 151.5"/></g></g></svg>