<svg width="275" height="275" viewBox="0 0 275 275" fill="none" xmlns="http://www.w3.org/2000/svg">
<mask id="mask0" mask-type="alpha" maskUnits="userSpaceOnUse" x="4" y="0" width="267" height="267">
<mask id="path-1-inside-1" mask-type="luminance" fill="white">
<path d="M211.35 133.147C211.35 140.746 206.563 147.239 199.843 149.786C197.897 150.534 195.777 150.934 193.563 150.934C183.75 150.934 175.777 142.947 175.777 133.147C175.777 128.254 177.777 123.799 180.99 120.573C184.203 117.359 188.657 115.359 193.563 115.359C195.711 115.359 197.843 115.746 199.843 116.519C201.003 116.959 202.137 117.519 203.19 118.214L204.43 116.973L214.95 106.466L219.39 110.906L207.79 122.507C210.097 125.573 211.35 129.306 211.35 133.147ZM199.843 43.0793C191.39 40.2273 182.443 38.4273 173.177 37.8406C170.937 37.6793 168.67 37.614 166.39 37.614C143.11 37.614 120.337 45.4273 102.057 59.654C101.497 60.0793 100.95 60.5193 100.403 60.9593L100.23 61.1073L102.057 63.0006L122.963 84.7206L148.617 111.387L165.51 128.934V176.427L173.177 174.161L235.083 155.841L270.95 145.227V141.733C270.95 95.9726 241.15 57.0006 199.843 43.0793"/>
</mask>
<path d="M211.35 133.147C211.35 140.746 206.563 147.239 199.843 149.786C197.897 150.534 195.777 150.934 193.563 150.934C183.75 150.934 175.777 142.947 175.777 133.147C175.777 128.254 177.777 123.799 180.99 120.573C184.203 117.359 188.657 115.359 193.563 115.359C195.711 115.359 197.843 115.746 199.843 116.519C201.003 116.959 202.137 117.519 203.19 118.214L204.43 116.973L214.95 106.466L219.39 110.906L207.79 122.507C210.097 125.573 211.35 129.306 211.35 133.147ZM199.843 43.0793C191.39 40.2273 182.443 38.4273 173.177 37.8406C170.937 37.6793 168.67 37.614 166.39 37.614C143.11 37.614 120.337 45.4273 102.057 59.654C101.497 60.0793 100.95 60.5193 100.403 60.9593L100.23 61.1073L102.057 63.0006L122.963 84.7206L148.617 111.387L165.51 128.934V176.427L173.177 174.161L235.083 155.841L270.95 145.227V141.733C270.95 95.9726 241.15 57.0006 199.843 43.0793" fill="white"/>
<path d="M199.843 149.786L199.365 148.541L199.371 148.539L199.843 149.786ZM180.99 120.573L180.045 119.632L180.047 119.63L180.99 120.573ZM199.843 116.519L199.371 117.766L199.363 117.763L199.843 116.519ZM203.19 118.214L204.133 119.156L203.364 119.926L202.456 119.327L203.19 118.214ZM204.43 116.973L203.487 116.03L203.488 116.029L204.43 116.973ZM214.95 106.466L214.008 105.523L214.951 104.581L215.893 105.523L214.95 106.466ZM219.39 110.906L220.333 109.963L221.276 110.906L220.333 111.849L219.39 110.906ZM207.79 122.507L206.725 123.309L206.028 122.384L206.847 121.565L207.79 122.507ZM173.177 37.8406L173.093 39.1714L173.081 39.1705L173.177 37.8406ZM102.057 59.654L102.876 60.7063L102.863 60.7158L102.057 59.654ZM100.403 60.9593L99.5376 59.9453L99.5523 59.9328L99.5674 59.9206L100.403 60.9593ZM100.23 61.1073L99.2706 62.0331L98.2868 61.0134L99.3643 60.0933L100.23 61.1073ZM102.057 63.0006L103.016 62.0749L103.017 62.076L102.057 63.0006ZM122.963 84.7206L123.924 83.796L123.924 83.7963L122.963 84.7206ZM148.617 111.387L147.656 112.312L147.656 112.312L148.617 111.387ZM165.51 128.934L166.471 128.009L166.843 128.396V128.934H165.51ZM165.51 176.427L165.888 177.706L164.177 178.212V176.427H165.51ZM173.177 174.161L173.555 175.439L173.555 175.439L173.177 174.161ZM235.083 155.841L234.705 154.562L234.705 154.562L235.083 155.841ZM270.95 145.227H272.283V146.223L271.328 146.506L270.95 145.227ZM212.683 133.147C212.683 141.32 207.535 148.297 200.316 151.033L199.371 148.539C205.592 146.182 210.017 140.172 210.017 133.147H212.683ZM200.322 151.031C198.22 151.838 195.938 152.267 193.563 152.267V149.601C195.615 149.601 197.573 149.23 199.365 148.541L200.322 151.031ZM193.563 152.267C183.013 152.267 174.443 143.683 174.443 133.147H177.11C177.11 142.212 184.487 149.601 193.563 149.601V152.267ZM174.443 133.147C174.443 127.884 176.596 123.096 180.045 119.632L181.935 121.514C178.958 124.503 177.11 128.624 177.11 133.147H174.443ZM180.047 119.63C183.5 116.177 188.288 114.026 193.563 114.026V116.693C189.026 116.693 184.907 118.541 181.933 121.515L180.047 119.63ZM193.563 114.026C195.871 114.026 198.166 114.441 200.324 115.276L199.363 117.763C197.52 117.051 195.552 116.693 193.563 116.693V114.026ZM200.316 115.273C201.557 115.743 202.779 116.346 203.924 117.101L202.456 119.327C201.494 118.693 200.45 118.175 199.371 117.766L200.316 115.273ZM202.247 117.272L203.487 116.03L205.373 117.915L204.133 119.156L202.247 117.272ZM203.488 116.029L214.008 105.523L215.892 107.409L205.372 117.916L203.488 116.029ZM215.893 105.523L220.333 109.963L218.447 111.849L214.007 107.409L215.893 105.523ZM220.333 111.849L208.733 123.45L206.847 121.565L218.447 109.963L220.333 111.849ZM208.855 121.706C211.335 125.001 212.683 129.016 212.683 133.147H210.017C210.017 129.596 208.858 126.144 206.725 123.309L208.855 121.706ZM199.417 44.3427C191.073 41.5275 182.241 39.7505 173.093 39.1713L173.261 36.51C182.646 37.1041 191.707 38.9271 200.27 41.8159L199.417 44.3427ZM173.081 39.1705C170.879 39.0119 168.645 38.9473 166.39 38.9473V36.2806C168.695 36.2806 170.994 36.3467 173.273 36.5108L173.081 39.1705ZM166.39 38.9473C143.406 38.9473 120.921 46.6623 102.876 60.7062L101.238 58.6018C119.753 44.1923 142.814 36.2806 166.39 36.2806V38.9473ZM102.863 60.7158C102.321 61.1279 101.789 61.556 101.239 61.998L99.5674 59.9206C100.112 59.4826 100.673 59.0308 101.25 58.5922L102.863 60.7158ZM101.269 61.9733L101.096 62.1213L99.3643 60.0933L99.5376 59.9453L101.269 61.9733ZM101.19 60.1816L103.016 62.0749L101.097 63.9264L99.2706 62.0331L101.19 60.1816ZM103.017 62.076L123.924 83.796L122.003 85.6453L101.096 63.9253L103.017 62.076ZM123.924 83.7963L149.578 110.463L147.656 112.312L122.003 85.645L123.924 83.7963ZM149.577 110.463L166.471 128.009L164.55 129.859L147.656 112.312L149.577 110.463ZM166.843 128.934V176.427H164.177V128.934H166.843ZM165.132 175.149L172.799 172.882L173.555 175.439L165.888 177.706L165.132 175.149ZM172.798 172.882L234.705 154.562L235.462 157.119L173.555 175.439L172.798 172.882ZM234.705 154.562L270.572 143.949L271.328 146.506L235.462 157.119L234.705 154.562ZM269.617 145.227V141.733H272.283V145.227H269.617ZM269.617 141.733C269.617 96.5662 240.202 58.0883 199.418 44.3428L200.269 41.8158C242.098 55.913 272.283 95.3791 272.283 141.733H269.617Z" fill="black" mask="url(#path-1-inside-1)"/>
<path d="M270.257 155.039L265.393 156.479L265.204 155.84L265.393 156.479L173.366 183.706L173.366 183.706L102.246 204.733L102.246 204.733L91.2861 207.98L99.349 233.209L101.875 232.492L101.876 232.492L172.996 212.399L172.996 212.398L199.662 204.852L199.662 204.852L270.284 184.896V182.507V182.507L270.257 155.841V155.84V155.039Z" fill="white" stroke="black"/>
<path d="M20.2837 0.946793C11.8519 0.946793 4.95036 7.84832 4.95036 16.2801V172.947H63.8153C59.8694 162.648 57.817 151.615 57.817 140.28C57.817 125.588 61.2156 111.55 67.9041 98.5354C69.9 94.6493 72.1818 90.9068 74.7237 87.3334V0.946793H20.2837ZM4.95036 200.947V250.947C4.95036 259.379 11.8519 266.28 20.2837 266.28H74.7237V200.947H4.95036ZM102.724 0.946793V48.4681C121.396 35.8215 143.654 28.9468 166.39 28.9468C168.443 28.9468 170.486 29.0005 172.51 29.1178V0.946793H102.724ZM254.95 0.946793H200.51V34.1768C231.842 44.0539 257.314 67.1746 270.284 96.9078V16.2801C270.284 7.84832 263.382 0.946793 254.95 0.946793Z" fill="white" stroke="black"/>
<path d="M74.0938 173.344L74.0943 173.345C78.1401 182.546 83.8218 190.872 90.7585 197.954L99.2324 195.446C84.2649 181.767 74.8307 162.118 74.8307 140.28C74.8307 117.301 85.2712 96.7446 101.627 83.0375C102.794 82.044 103.998 81.1017 105.222 80.1941L101.577 76.4094L101.577 76.4092L99.867 74.6346C89.8936 82.2053 81.6891 91.9703 75.9853 103.222L75.9853 103.222C70.3381 114.357 67.1507 126.961 67.1507 140.28C67.1507 152.039 69.624 163.228 74.0938 173.344Z" fill="white" stroke="black"/>
<path d="M134.804 134.799L134.804 134.802C134.789 138.058 132.162 140.707 128.897 140.707H128.884C125.622 140.707 122.977 138.06 122.977 134.799C122.977 133.158 123.656 131.686 124.719 130.622C125.786 129.555 127.274 128.894 128.897 128.894C132.158 128.894 134.804 131.537 134.804 134.799ZM135.853 111.846L135.853 111.846L125.892 101.325C123.034 104.501 120.685 108.004 119.01 111.664C118.069 113.73 117.35 115.848 116.853 117.99C116.429 119.842 115.973 123.223 115.621 126.172C115.445 127.641 115.297 128.991 115.192 129.975C115.14 130.466 115.099 130.866 115.07 131.143L115.038 131.462L115.03 131.545L115.028 131.566L115.027 131.571L115.027 131.572L115.027 131.572L114.364 131.507L115.027 131.573L115.015 131.693L114.962 131.802L103.209 155.667C103.068 155.996 102.99 156.39 102.99 156.814C102.99 158.47 104.303 159.799 105.924 159.799H114.364H115.03V160.466V173.147C115.03 177.891 115.951 181.388 117.497 183.936C118.996 186.407 121.112 188.034 123.658 189.041L155.457 179.477V132.546L135.853 111.846Z" fill="white" stroke="black"/>
<path d="M270.271 251.387L270.218 194.988L200.025 214.828L200.025 214.828L173.359 222.362L173.359 222.362L102.239 242.468L102.235 242.469L101.609 242.643C99.3605 246.072 97.3136 249.509 95.3228 252.852C94.7816 253.761 94.2446 254.662 93.7088 255.555C91.4221 259.365 89.1593 263.008 86.7124 266.28H141.572C149.414 252.291 160.266 241.397 172.854 234.431C181.197 229.802 190.297 226.893 199.778 225.976C201.987 225.748 204.21 225.639 206.444 225.639C230.669 225.639 253.018 238.62 267.388 259.896C269.13 257.481 270.188 254.552 270.271 251.405V251.388V251.387Z" fill="white" stroke="black"/>
<path d="M173.543 245.57L173.542 245.571C165.696 250.7 158.722 257.703 153.082 266.28H254.95C256.399 266.28 257.803 266.079 259.133 265.699C246.568 246.962 227.196 235.6 206.297 235.6C204.148 235.6 202.026 235.719 199.918 235.956L199.916 235.956C190.546 236.984 181.579 240.292 173.543 245.57Z" fill="white" stroke="black"/>
<path d="M199.563 126.085C199.185 125.91 198.826 125.708 198.471 125.482L198.47 125.481C197.002 124.535 195.3 124.027 193.564 124.027C188.532 124.027 184.444 128.115 184.444 133.147C184.444 138.179 188.532 142.267 193.564 142.267C195.787 142.267 197.835 141.46 199.412 140.119L199.412 140.119L199.417 140.114C201.418 138.449 202.684 135.941 202.684 133.147C202.684 131.212 202.038 129.287 200.86 127.737L200.86 127.737L200.854 127.729C200.507 127.259 200.215 126.768 199.967 126.259C199.833 126.205 199.699 126.148 199.563 126.085ZM199.563 126.085C199.563 126.085 199.562 126.084 199.562 126.084L199.844 125.48L199.565 126.085C199.564 126.085 199.564 126.085 199.563 126.085Z" fill="white" stroke="black"/>
</mask>
<g mask="url(#mask0)">
<path d="M-62.3829 342.433H337.617V-57.5681H-62.3829V342.433Z" fill="url(#paint0_linear)"/>
</g>
<defs>
<linearGradient id="paint0_linear" x1="-103.266" y1="30.1076" x2="259.257" y2="199.155" gradientUnits="userSpaceOnUse">
<stop stop-color="#5106FF"/>
<stop offset="1" stop-color="#61CBF2"/>
</linearGradient>
</defs>
</svg>
