<svg xmlns="http://www.w3.org/2000/svg" viewBox="0 0 294.6 110"><defs><style>.cls-1{fill:#fff;}</style></defs><title>Asset 2</title><g id="Layer_2" data-name="Layer 2"><g id="Layer_1-2" data-name="Layer 1"><g id="b6601fba-61d0-4caa-b498-56411fe412c3"><path class="cls-1" d="M136.12,44c4-1.06,6.08-3.61,6.08-7.37,0-5.24-4.26-8.47-11.28-8.47H121V63.56h11.51c7.94,0,12.84-3.92,12.84-10.19C145.35,48.21,142.05,44.79,136.12,44Zm1-7.47c0,3.14-2.24,5.08-6.07,5.08h-3.94V31.78h4.09C135,31.78,137.12,33.45,137.12,36.48Zm-5,22.19h-5V46.44H132c4.66,0,7.59,2.21,7.59,6.06S136.76,58.67,132.1,58.67Zm29.23,4.71c5.39,0,11-2.48,11-11.32V37.89h-6.11v14.2c0,4.16-1.92,6.75-5.52,6.75s-5.48-2.59-5.48-6.75V37.89h-4.89V52.06C150.33,60.9,156,63.38,161.33,63.38Zm20.25-30A3.38,3.38,0,1,0,178.17,30,3.37,3.37,0,0,0,181.58,33.36Zm-1.91,29h4.89V37.89h-4.89Zm12.22,0h4.89V25.67h-4.89Zm30.55-36.66V40.76a9.34,9.34,0,0,0-7.59-3.55c-6,0-10.71,4.92-10.71,12.88s4.75,12.84,10.71,12.84A9.33,9.33,0,0,0,222.72,59l.63,3.33h4V25.67Zm-7.16,33.4c-4.46,0-7.42-3.67-7.42-8.55s3-8.58,7.42-8.58c4.64,0,7.64,3.75,7.64,8.58S219.92,59.07,215.28,59.07Zm22-25.71A3.38,3.38,0,1,0,233.87,30,3.37,3.37,0,0,0,237.28,33.36Zm-2.61,29h4.89V37.89h-4.89Zm17.53-3.66,14.24-16.62V37.89H246.89v4.89h12.46L245.67,59.22v4.34h20.77V58.67Zm36.68-20.78-7.41,18.24-7.38-18.24h-5.68l10.41,24.44-5.41,12.23h5.52L294.6,37.89Z"/></g><path class="cls-1" d="M25,71.5H0V6.6A6.62,6.62,0,0,1,6.6,0H29.33V36a37.41,37.41,0,0,0-7,21.75A37.3,37.3,0,0,0,25,71.5Z"/><path class="cls-1" d="M29.33,82.5V110H6.6A6.62,6.62,0,0,1,0,103.4V82.5Z"/><path class="cls-1" d="M29.33,42.34a34.59,34.59,0,0,1,10.13-12l.87.91L42.05,33c-.59.43-1.16.87-1.72,1.35a30.48,30.48,0,0,0-.61,46.28l-4.13,1.22a34.2,34.2,0,0,1-6.26-39.51Z"/><path class="cls-1" d="M54.47,45.83l-4.31-4.55a17.44,17.44,0,0,0-3.09,4.55,14.63,14.63,0,0,0-.9,2.66c-.36,1.57-.76,5.64-.76,5.64L40.56,64a1.45,1.45,0,0,0-.12.59,1.5,1.5,0,0,0,1.49,1.51h3.48v5.23c0,4,1.54,6,3.82,6.84l13.4-4V54.45ZM51.4,57.65h0a2.16,2.16,0,1,1,2.16-2.16A2.16,2.16,0,0,1,51.4,57.65Z"/><path class="cls-1" d="M66.87,12.1a46.7,46.7,0,0,0-26.54,8.3V0H69.67V12.19C68.74,12.13,67.81,12.1,66.87,12.1Z"/><path class="cls-1" d="M105.56,109.64a6.75,6.75,0,0,1-2.16.36H60.87a30,30,0,0,1,8.8-9,25,25,0,0,1,11-4,23.45,23.45,0,0,1,2.66-.15C92.17,96.79,100.34,101.66,105.56,109.64Z"/><path class="cls-1" d="M110,103.58h0a6.47,6.47,0,0,1-1.47,4c-5.88-8.9-15.12-14.32-25.13-14.32-.91,0-1.82,0-2.72.13a28.38,28.38,0,0,0-11,3.46A33.34,33.34,0,0,0,56.79,110H33.45c2.26-2.89,4.11-6.59,6.52-10.26l.36-.1,29.34-8.3,11-3.1L110,80Z"/><path class="cls-1" d="M110,6.6V41.23a46.61,46.61,0,0,0-29.33-27V0H103.4A6.62,6.62,0,0,1,110,6.6Z"/><path class="cls-1" d="M81.31,52.41a4,4,0,0,1-.64,5.48,4,4,0,0,1-2.59,1,4,4,0,1,1,0-8.07,4.07,4.07,0,0,1,2.17.64,4.49,4.49,0,0,0,.42.24l.25.1A3.69,3.69,0,0,0,81.31,52.41Z"/><path class="cls-1" d="M80.67,17.65a43.52,43.52,0,0,0-11-2.16c-.93-.06-1.86-.09-2.8-.09a43.34,43.34,0,0,0-26.54,9.09l-.68.54-.07.06.75.78,8.63,9,10.58,11,7,7.24V72.66l3.16-.93,25.54-7.56L110,59.79V58.35A43,43,0,0,0,80.67,17.65Zm4.75,37.16a7.35,7.35,0,0,1-4.75,6.86,7.17,7.17,0,0,1-2.59.47,7.34,7.34,0,1,1,0-14.67,7.2,7.2,0,0,1,2.59.48,6.89,6.89,0,0,1,1.38.7l.51-.51L86.9,43.8l1.83,1.83L84,50.42A7.29,7.29,0,0,1,85.42,54.81Z"/><polygon class="cls-1" points="109.99 64.17 110 75.17 110 76.36 80.67 84.65 69.67 87.76 40.33 96.05 39.03 96.42 35.54 85.49 40.33 84.07 69.67 75.4 107.63 64.17 109.99 63.47 109.99 64.17"/></g></g></svg>
