<svg xmlns="http://www.w3.org/2000/svg" viewBox="0 0 60 60"><defs><style>.cls-1{fill:#fff;}</style></defs><title>Asset 1</title><g id="Layer_2" data-name="Layer 2"><g id="Layer_1-2" data-name="Layer 1"><path class="cls-1" d="M13.61,39H0V3.6A3.61,3.61,0,0,1,3.6,0H16V19.64a19.36,19.36,0,0,0-1.55,2.54A20.09,20.09,0,0,0,12.2,31.5,20.4,20.4,0,0,0,13.61,39Z"/><path class="cls-1" d="M16,45V60H3.6A3.61,3.61,0,0,1,0,56.4V45Z"/><path class="cls-1" d="M16,23.09a18.82,18.82,0,0,1,5.52-6.56L22,17l.94,1c-.32.23-.64.48-.94.74A16.62,16.62,0,0,0,21.66,44l-2.25.67A18.91,18.91,0,0,1,15.57,39,18.69,18.69,0,0,1,16,23.09Z"/><path class="cls-1" d="M29.71,25l-2.35-2.49A9.42,9.42,0,0,0,25.68,25a7.78,7.78,0,0,0-.5,1.45c-.19.85-.41,3.08-.41,3.08L22.12,34.9a.87.87,0,0,0-.06.32.82.82,0,0,0,.81.82h1.9V38.9c0,2.17.84,3.26,2.08,3.73l7.31-2.2V29.7ZM28,31.45h0a1.17,1.17,0,0,1-1.17-1.18A1.16,1.16,0,0,1,28,29.09a1.18,1.18,0,0,1,0,2.36Z"/><path class="cls-1" d="M36.47,6.6A25.43,25.43,0,0,0,22,11.13V0H38V6.65C37.5,6.61,37,6.6,36.47,6.6Z"/><path class="cls-1" d="M57.58,59.8a3.57,3.57,0,0,1-1.18.2H33.2A16.55,16.55,0,0,1,38,55.06a13.58,13.58,0,0,1,6-2.18,11.64,11.64,0,0,1,1.45-.08A14.64,14.64,0,0,1,57.58,59.8Z"/><path class="cls-1" d="M60,56.5h0a3.55,3.55,0,0,1-.81,2.17,16.54,16.54,0,0,0-13.7-7.81,14.72,14.72,0,0,0-1.49.07,15.53,15.53,0,0,0-6,1.88A18.21,18.21,0,0,0,31,60H18.24c1.24-1.58,2.25-3.6,3.56-5.6l.2,0,16-4.53,6-1.69,16-4.52Z"/><path class="cls-1" d="M60,3.6V22.49A25.35,25.35,0,0,0,44,7.74V0H56.4A3.61,3.61,0,0,1,60,3.6Z"/><path class="cls-1" d="M44.35,28.59a2.19,2.19,0,1,1-1.76-.9,2.23,2.23,0,0,1,1.18.35l.23.13.14.06A3.35,3.35,0,0,0,44.35,28.59Z"/><path class="cls-1" d="M44,9.63a23.31,23.31,0,0,0-6-1.18c-.5,0-1,0-1.53,0a23.64,23.64,0,0,0-14.47,5c-.13.09-.25.19-.37.29l0,0,.41.42L26.7,19l5.78,6L36.28,29V39.63L38,39.12,51.93,35,60,32.61v-.78A23.48,23.48,0,0,0,44,9.63ZM46.59,29.9A4,4,0,0,1,44,33.64a3.88,3.88,0,0,1-1.41.26,4,4,0,0,1-2.83-6.83,4,4,0,0,1,2.83-1.18,4,4,0,0,1,1.41.26,3.56,3.56,0,0,1,.75.39l.28-.28,2.37-2.37,1,1L45.79,27.5A4,4,0,0,1,46.59,29.9Z"/><polygon class="cls-1" points="59.99 35 60 41 60 41.65 44 46.17 38 47.87 22 52.39 21.29 52.59 19.39 46.63 22 45.86 38 41.13 58.71 35 59.99 34.62 59.99 35"/><path class="cls-1" d="M56.4,0H44V7.74A25.35,25.35,0,0,1,60,22.49V3.6A3.61,3.61,0,0,0,56.4,0ZM22,0V11.13A25.43,25.43,0,0,1,36.47,6.6c.52,0,1,0,1.53.05V0ZM0,45V56.4A3.61,3.61,0,0,0,3.6,60H16V45ZM3.6,0A3.61,3.61,0,0,0,0,3.6V39H13.61a20.4,20.4,0,0,1-1.41-7.5,20.09,20.09,0,0,1,2.25-9.32A19.36,19.36,0,0,1,16,19.64V0Z"/><path class="cls-1" d="M16,31.5A16.66,16.66,0,0,0,21.66,44l-2.25.67A18.91,18.91,0,0,1,15.57,39,18.69,18.69,0,0,1,16,23.09a18.82,18.82,0,0,1,5.52-6.56L22,17l.94,1c-.32.23-.64.48-.94.74A16.6,16.6,0,0,0,16,31.5Z"/><path class="cls-1" d="M29.71,25l-2.35-2.49A9.42,9.42,0,0,0,25.68,25a7.78,7.78,0,0,0-.5,1.45c-.19.85-.41,3.08-.41,3.08L22.12,34.9a.87.87,0,0,0-.06.32.82.82,0,0,0,.81.82h1.9V38.9c0,2.17.84,3.26,2.08,3.73l7.31-2.2V29.7ZM28,31.45h0a1.17,1.17,0,0,1-1.17-1.18A1.16,1.16,0,0,1,28,29.09a1.18,1.18,0,0,1,0,2.36Z"/><polygon class="cls-1" points="60 41 60 41.65 44 46.17 38 47.87 22 52.39 21.29 52.59 19.39 46.63 22 45.86 38 41.13 58.71 35 59.99 34.62 59.99 35 60 41"/><path class="cls-1" d="M44,9.63a23.31,23.31,0,0,0-6-1.18c-.5,0-1,0-1.53,0a23.64,23.64,0,0,0-14.47,5c-.13.09-.25.19-.37.29l0,0,.41.42L26.7,19l5.78,6L36.28,29V39.63L38,39.12,51.93,35,60,32.61v-.78A23.48,23.48,0,0,0,44,9.63ZM46.59,29.9A4,4,0,0,1,44,33.64a3.88,3.88,0,0,1-1.41.26,4,4,0,0,1-2.83-6.83,4,4,0,0,1,2.83-1.18,4,4,0,0,1,1.41.26,3.56,3.56,0,0,1,.75.39l.28-.28,2.37-2.37,1,1L45.79,27.5A4,4,0,0,1,46.59,29.9Z"/><path class="cls-1" d="M44.79,29.9a2.2,2.2,0,1,1-2.2-2.21,2.23,2.23,0,0,1,1.18.35l.23.13.14.06a3.35,3.35,0,0,0,.21.36A2.2,2.2,0,0,1,44.79,29.9Z"/><path class="cls-1" d="M60,56.5h0a3.55,3.55,0,0,1-.81,2.17,16.54,16.54,0,0,0-13.7-7.81,14.72,14.72,0,0,0-1.49.07,15.53,15.53,0,0,0-6,1.88A18.21,18.21,0,0,0,31,60H18.24c1.24-1.58,2.25-3.6,3.56-5.6l.2,0,16-4.53,6-1.69,16-4.52Z"/><path class="cls-1" d="M57.58,59.8a3.57,3.57,0,0,1-1.18.2H33.2A16.55,16.55,0,0,1,38,55.06a13.58,13.58,0,0,1,6-2.18,11.64,11.64,0,0,1,1.45-.08A14.64,14.64,0,0,1,57.58,59.8Z"/></g></g></svg>
